<?xml version="1.0" encoding="utf-8"?>
<!-- Generator: Adobe Illustrator 23.1.1, SVG Export Plug-In . SVG Version: 6.00 Build 0)  -->
<svg version="1.1" id="Calque_1" xmlns="http://www.w3.org/2000/svg" xmlns:xlink="http://www.w3.org/1999/xlink" x="0px" y="0px"
	 viewBox="0 0 148.9 148.9" style="enable-background:new 0 0 148.9 148.9;" xml:space="preserve">
<style type="text/css">
	.st0{fill:#FFFFFF;}
	.st1{fill:#C10B25;}
</style>
<g>
	<path class="st0" d="M148.9,74.4c0,41.1-33.3,74.5-74.5,74.5C33.3,148.9,0,115.6,0,74.4S33.3,0,74.4,0
		C115.6,0,148.9,33.3,148.9,74.4L148.9,74.4z"/>
	<g>
		<path class="st1" d="M9.8,76.5c0-1,0.8-1.8,1.8-1.9s1.8,0.8,1.9,1.8s-0.8,1.8-1.8,1.9C10.7,78.3,9.9,77.5,9.8,76.5z"/>
		<path class="st1" d="M8.2,69.6l0.1-0.7l6.5,0.6l0.2-2.7l0.6,0.1l-0.3,3.3L8.2,69.6z"/>
		<path class="st1" d="M8.8,64.5l0.1-0.7l2.1,1.1l-0.1,0.5L8.8,64.5z"/>
		<path class="st1" d="M9.2,61.9l0.7-3.2l0.6,0.1L10,61.4l2.5,0.5l0.5-2.4l0.6,0.1l-0.5,2.4l2.7,0.6l0.6-2.7l0.6,0.1l-0.7,3.3
			L9.2,61.9z"/>
		<path class="st1" d="M14.2,56.1l-3.9,1.1l0.2-0.7l3.3-0.9l-2.2-2.7l0.2-0.7l2.6,3.2l4.3-1.2l-0.2,0.8l-3.7,1l2.5,3l-0.2,0.7
			L14.2,56.1z"/>
		<path class="st1" d="M15,46.8c-0.4,0.3-0.7,0.8-0.9,1.2c-0.7,1.6,0.1,3,1.8,3.7c1.7,0.7,3.2,0.3,3.9-1.3c0.2-0.4,0.4-1,0.3-1.5
			l0.6,0.2c0.1,0.4-0.1,1.1-0.3,1.5c-0.8,1.9-2.7,2.5-4.7,1.7c-2-0.8-2.9-2.7-2.1-4.6c0.1-0.4,0.5-1.1,0.9-1.3L15,46.8z"/>
		<path class="st1" d="M15.3,44.3l1.6-2.9l0.5,0.3L16.1,44l2.3,1.2l1.2-2.2l0.5,0.3l-1.2,2.2l2.4,1.3l1.3-2.4l0.5,0.3l-1.6,3
			L15.3,44.3z"/>
		<path class="st1" d="M17.9,39.7l0.4-0.6l5.5,3.5l1.5-2.2l0.5,0.3l-1.8,2.8L17.9,39.7z"/>
		<path class="st1" d="M20.4,35.9l0.4-0.5l5.3,3.9l1.6-2.2l0.5,0.4l-2,2.7L20.4,35.9z"/>
		<path class="st1" d="M23.3,32.1l2.1-2.5l0.5,0.4l-1.7,2l1.9,1.7l1.6-1.9l0.5,0.4l-1.6,1.9l2.1,1.8l1.8-2.1l0.5,0.4l-2.2,2.5
			L23.3,32.1z"/>
		<path class="st1" d="M26.8,28.2l0.6-0.6l6.8,2.2l0,0l-4.4-4.6l0.5-0.5l5,5.2l-0.6,0.6L28,28.4l0,0l4.3,4.5l-0.5,0.5L26.8,28.2z"/>
		<path class="st1" d="M36.1,21.2c-0.5,0.1-1,0.4-1.4,0.7c-1.4,1.1-1.3,2.7-0.2,4.1c1.1,1.4,2.7,1.9,4,0.8c0.3-0.3,0.8-0.7,1-1.2
			l0.4,0.5c-0.1,0.4-0.7,0.9-1,1.2c-1.7,1.3-3.6,0.9-4.9-0.9c-1.3-1.7-1.2-3.7,0.4-5c0.3-0.2,1-0.7,1.4-0.7L36.1,21.2z"/>
		<path class="st1" d="M37.5,19.3l2.8-1.8l0.3,0.5l-2.2,1.4l1.4,2.2l2.1-1.3l0.3,0.5l-2.1,1.3l1.5,2.3l2.3-1.5l0.3,0.5l-2.9,1.8
			L37.5,19.3z"/>
		<path class="st1" d="M44.6,15.1l1.5-0.7c2.2-1,3.7-0.1,4.5,1.9c1.1,2.4,0,4-2,4.9l-1.1,0.5L44.6,15.1z M47.9,20.8l0.5-0.2
			c1.7-0.8,2.5-2.1,1.6-4.1c-0.9-2-2.3-2.1-3.7-1.5l-0.9,0.4L47.9,20.8z"/>
		<path class="st1" d="M51,12.3l3.1-1.1l0.2,0.6l-2.5,0.9l0.8,2.4l2.3-0.8l0.2,0.6l-2.3,0.8l0.9,2.6l2.6-0.9l0.2,0.6l-3.2,1.1
			L51,12.3z"/>
		<path class="st1" d="M57.4,16.8c0.5,0.2,0.9,0.2,1.5,0c0.8-0.2,1.3-0.8,1.1-1.8c-0.4-1.4-3.4-0.8-3.8-2.6
			c-0.3-1.1,0.4-2.1,1.6-2.4c0.3-0.1,0.8-0.2,1.3-0.1l0.1,0.7c-0.3-0.1-0.8-0.1-1.2,0.1c-0.7,0.2-1.3,0.7-1.1,1.6
			c0.4,1.4,3.3,0.6,3.9,2.7c0.4,1.4-0.6,2.3-1.6,2.5c-0.6,0.2-1.2,0.2-1.5,0.1L57.4,16.8z"/>
		<path class="st1" d="M64.6,15.1c0.4,0.2,0.9,0.3,1.5,0.2c0.8-0.1,1.4-0.6,1.3-1.7c-0.2-1.4-3.2-1.2-3.5-3c-0.2-1.1,0.7-2,1.8-2.1
			c0.3,0,0.8-0.1,1.3,0.1l0,0.7c-0.3-0.1-0.8-0.2-1.2-0.1c-0.7,0.1-1.4,0.5-1.3,1.4c0.2,1.4,3.2,1,3.5,3.1c0.2,1.4-0.9,2.2-1.9,2.3
			c-0.7,0.1-1.2,0-1.5-0.1L64.6,15.1z"/>
		<path class="st1" d="M71.3,8.1l0.8,0l2.9,7.1l-0.7,0l-0.8-1.9l-3.4,0.1l-0.6,1.9l-0.6,0L71.3,8.1z M71.7,8.8l-1.3,4l2.9-0.1
			L71.7,8.8z"/>
		<path class="st1" d="M78.2,15.4l-0.7,0L75.4,8l0.7,0l1.8,6.6l2.6-6.3l0.7,0L78.2,15.4z"/>
		<path class="st1" d="M85.2,8.8c2,0.3,2.6,2.2,2.3,4.1c-0.4,2.2-1.6,3.5-3.5,3.2c-1.9-0.3-2.6-2-2.3-4.1C82,10.1,83.3,8.5,85.2,8.8
			z M82.4,12.1c-0.2,1.5,0.2,3.2,1.8,3.4s2.5-1.2,2.8-2.7c0.2-1.5-0.2-3.2-1.8-3.4C83.6,9.2,82.6,10.6,82.4,12.1z"/>
		<path class="st1" d="M89.8,9.8l0.6,0.2l-1.7,7l-0.6-0.2L89.8,9.8z"/>
		<path class="st1" d="M92.3,10.5L94,11c1.1,0.4,1.7,1.1,1.3,2.4c-0.3,0.9-1.1,1.3-1.9,1.1l0,0c0.5,0.2,0.5,0.6,0.6,1.1l0.3,3
			l-0.7-0.2l-0.2-2.6c-0.1-1-0.4-1.1-1-1.3l-0.5-0.2l-1,3.2l-0.6-0.2L92.3,10.5z M92,13.7l0.7,0.2c0.7,0.2,1.7,0.2,2-0.8
			c0.3-1.1-0.4-1.4-1.2-1.7l-0.7-0.2L92,13.7z"/>
		<path class="st1" d="M95.9,15.9l2.2,0.9l-0.3,0.7l-2.2-0.9L95.9,15.9z"/>
		<path class="st1" d="M101,13.6l2.9,1.3l-0.3,0.6l-2.3-1.1l-1.1,2.3l2.2,1l-0.3,0.6l-2.2-1l-1.4,3.1L98,20.1L101,13.6z"/>
		<path class="st1" d="M107.1,16.7l0.7,0.4l-1.3,7.6l-0.6-0.3l0.3-2l-2.9-1.7l-1.6,1.3l-0.6-0.3L107.1,16.7z M107.1,17.4l-3.2,2.7
			l2.5,1.5L107.1,17.4z"/>
		<path class="st1" d="M111.1,19.1l0.6,0.4l-4,6l-0.6-0.4L111.1,19.1z"/>
		<path class="st1" d="M113.8,20.9l1.4,1.1c0.9,0.7,1.2,1.6,0.4,2.7c-0.6,0.7-1.5,0.8-2.2,0.4l0,0c0.4,0.4,0.3,0.7,0.2,1.2l-0.8,2.9
			l-0.6-0.5l0.7-2.5c0.3-1,0.1-1.2-0.4-1.5l-0.4-0.3l-2.1,2.7l-0.5-0.4L113.8,20.9z M112.3,23.9l0.6,0.4c0.6,0.5,1.5,0.8,2.1,0
			c0.7-0.9,0.2-1.5-0.6-2l-0.5-0.4L112.3,23.9z"/>
		<path class="st1" d="M118.3,24.6l2.4,2.2l-0.4,0.5l-1.9-1.8l-1.7,1.9l1.8,1.7l-0.4,0.5l-1.8-1.7l-1.9,2l2,1.9l-0.4,0.4l-2.5-2.3
			L118.3,24.6z"/>
		<path class="st1" d="M124,30.3l2.1,2.4l-0.5,0.4l-1.6-1.9l-1.9,1.7l1.6,1.8l-0.5,0.4l-1.6-1.8l-2.6,2.2l-0.4-0.5L124,30.3z"/>
		<path class="st1" d="M127.1,33.9l1,1.4c0.7,1,0.7,1.9-0.3,2.7c-0.8,0.5-1.6,0.4-2.2-0.2l0,0c0.3,0.5,0.1,0.8-0.2,1.2l-1.6,2.6
			l-0.4-0.6l1.4-2.2c0.5-0.9,0.4-1.1,0-1.6l-0.3-0.4l-2.7,2l-0.4-0.5L127.1,33.9z M124.9,36.3l0.4,0.6c0.5,0.6,1.2,1.2,2,0.6
			c1-0.7,0.6-1.4,0-2.1l-0.4-0.5L124.9,36.3z"/>
		<path class="st1" d="M131.5,40.5l0.4,0.6L127,47l-0.3-0.6l1.3-1.6l-1.7-2.9l-2,0.4l-0.3-0.5L131.5,40.5z M131.1,41.1l-4.2,0.8
			l1.5,2.5L131.1,41.1z"/>
		<path class="st1" d="M133.9,44.8l0.3,0.8l-4.4,5.7l0,0l5.8-2.6l0.3,0.6l-6.5,3l-0.4-0.8l4.3-5.6l0,0l-5.6,2.6l-0.3-0.6L133.9,44.8
			z"/>
		<path class="st1" d="M137.4,55.8c0.1-0.5,0-1.1-0.2-1.5c-0.6-1.6-2.1-2.2-3.8-1.6c-1.7,0.6-2.6,1.9-2.1,3.5c0.1,0.4,0.4,1,0.8,1.3
			l-0.6,0.2c-0.3-0.3-0.6-1-0.8-1.4c0,0,0-0.1,0-0.1h-0.5c0,0.1,0.1,0.2,0.1,0.3c0.1,0.4,0,0.7-0.4,0.9c-0.6,0.2-0.9-0.4-1-0.8
			c-0.1-0.4-0.1-0.9-0.1-1l0.4-0.1c-0.1,0.2-0.1,0.6,0,0.9c0.1,0.3,0.3,0.4,0.5,0.3c0.2-0.1,0.3-0.3,0.2-0.5c0-0.1-0.1-0.2-0.2-0.4
			l0.8,0c-0.4-1.8,0.6-3.3,2.6-4c2.1-0.7,3.9,0.1,4.6,2c0.1,0.4,0.3,1.2,0.2,1.5L137.4,55.8z"/>
		<path class="st1" d="M139.2,59.9l0.2,0.7l-6.5,4.1l-0.1-0.7l1.7-1.1l-0.7-3.3l-2-0.3l-0.1-0.6L139.2,59.9z M138.6,60.4l-4.2-0.6
			l0.6,2.8L138.6,60.4z"/>
		<path class="st1" d="M140.1,64.5l0.1,0.7l-7.1,1l-0.1-0.7L140.1,64.5z"/>
		<path class="st1" d="M134.2,67.4c-0.2,0.4-0.4,0.9-0.3,1.5c0.1,0.8,0.6,1.5,1.6,1.4c1.4-0.1,1.3-3.2,3.2-3.3
			c1.1-0.1,1.9,0.8,2.1,1.9c0,0.3,0,0.8-0.1,1.3l-0.7-0.1c0.1-0.3,0.2-0.8,0.2-1.2c-0.1-0.7-0.4-1.4-1.4-1.3
			c-1.4,0.1-1.2,3.2-3.3,3.4c-1.4,0.1-2.1-1-2.2-2c-0.1-0.7,0-1.2,0.2-1.5L134.2,67.4z"/>
		<path class="st1" d="M139.1,76.6c0.1,1-0.7,1.9-1.7,1.9c-1,0.1-1.9-0.7-1.9-1.7s0.7-1.9,1.7-1.9C138.1,74.8,139,75.6,139.1,76.6z"
			/>
	</g>
	<g>
		<path class="st1" d="M16.1,84.3l0.7,3.6L16.2,88l-0.6-2.8l-2.5,0.5l0.5,2.7l-0.6,0.1l-0.5-2.7l-2.7,0.5l0.6,3l-0.6,0.1l-0.7-3.7
			L16.1,84.3z"/>
		<path class="st1" d="M17.2,89.3l0.3,0.9l-4.9,5.5l0,0l6-1.9l0.2,0.7l-6.9,2.1l-0.3-0.9l4.8-5.4l0,0l-5.9,1.8l-0.2-0.7L17.2,89.3z"
			/>
		<path class="st1" d="M19.3,97.5l-0.9-2l0.6-0.2l2,4.7l-0.6,0.2l-0.9-2l-6,2.6l-0.3-0.7L19.3,97.5z"/>
		<path class="st1" d="M21.5,100.8l0.9,1.7c0.6,1.2,0.6,2.2-0.6,2.8c-0.8,0.4-1.7,0.1-2.2-0.7l0,0c0.2,0.6,0,0.8-0.3,1.2l-1.8,2.4
			l-0.4-0.7l1.6-2.1c0.6-0.8,0.5-1.1,0.1-1.7l-0.3-0.5l-3,1.6l-0.4-0.6L21.5,100.8z M19,103l0.4,0.7c0.4,0.8,1.2,1.5,2,1
			c1-0.6,0.7-1.3,0.2-2.2l-0.4-0.7L19,103z"/>
		<path class="st1" d="M24.3,105.9l2,3l-0.5,0.3l-1.6-2.4l-2.1,1.4l1.5,2.3l-0.5,0.3l-1.5-2.3l-2.3,1.5l1.7,2.5l-0.5,0.4l-2.1-3.1
			L24.3,105.9z"/>
		<path class="st1" d="M27.3,110.2l1.1,1.4c0.9,1.1,0.9,2.2-0.1,3.1c-1,0.8-2.2,0.5-3.1-0.6l-0.6-0.8l-2.4,1.9l-0.5-0.6L27.3,110.2z
			 M25.1,112.9l0.3,0.4c0.7,0.9,1.4,1.6,2.5,0.8c0.7-0.6,0.8-1.3,0.2-2l-0.8-0.9L25.1,112.9z"/>
		<path class="st1" d="M30.7,114.2l1.3,1.4c0.9,0.9,1.1,1.9,0.2,2.9c-0.7,0.7-1.6,0.6-2.3,0l0,0c0.4,0.5,0.2,0.8,0,1.3l-1.1,2.8
			l-0.6-0.6l1-2.5c0.4-0.9,0.2-1.2-0.3-1.7l-0.4-0.4l-2.4,2.4l-0.5-0.5L30.7,114.2z M28.9,117l0.5,0.6c0.6,0.6,1.5,1.1,2.2,0.4
			c0.8-0.8,0.3-1.5-0.4-2.2l-0.5-0.5L28.9,117z"/>
		<path class="st1" d="M34.8,118.3l0.5,0.5l-4.8,5.3l-0.5-0.5L34.8,118.3z"/>
		<path class="st1" d="M32.6,124.8c0.2,0.5,0.5,0.9,1,1.3c0.7,0.6,1.6,0.7,2.2-0.1c0.9-1.1-1.7-3.3-0.5-4.8c0.7-0.9,2-0.8,3,0
			c0.3,0.2,0.7,0.6,1,1.1l-0.5,0.4c-0.2-0.3-0.5-0.7-0.9-1c-0.6-0.5-1.5-0.8-2,0c-0.9,1.1,1.8,3.2,0.5,4.9c-0.9,1.1-2.3,0.8-3.2,0.1
			c-0.6-0.4-0.9-0.9-1.1-1.3L32.6,124.8z"/>
		<path class="st1" d="M40.8,123.1l3,2l-0.3,0.5l-2.4-1.6l-1.4,2.2l2.3,1.5l-0.3,0.5l-2.3-1.5l-1.5,2.3l2.5,1.6l-0.3,0.5l-3.2-2
			L40.8,123.1z"/>
		<path class="st1" d="M48,127.4l1.7,0.7c2.4,1.1,2.8,2.9,1.9,4.8c-1.1,2.4-3.1,2.6-5.3,1.6l-1.2-0.5L48,127.4z M46,133.7l0.5,0.2
			c1.9,0.9,3.5,0.7,4.4-1.4c0.9-2,0-3.2-1.5-3.9l-1-0.4L46,133.7z"/>
		<path class="st1" d="M58.1,136.2c-0.6,2-2.3,2-3.3,1.7c-1-0.3-2.4-1.3-1.8-3.3l1.4-4.5l0.7,0.2l-1.4,4.5c-0.3,1.1,0,2.1,1.3,2.5
			s2.1-0.2,2.5-1.4l1.4-4.5l0.7,0.2L58.1,136.2z"/>
		<path class="st1" d="M64.3,132.7l1.8,0.3c1.4,0.2,2.2,1,2,2.3c-0.2,1.3-1.3,1.9-2.6,1.7l-1-0.1l-0.4,3.1l-0.7-0.1L64.3,132.7z
			 M64.5,136.2l0.5,0.1c1.1,0.2,2.1,0.2,2.3-1.1c0.1-0.9-0.3-1.5-1.2-1.6l-1.2-0.2L64.5,136.2z"/>
		<path class="st1" d="M71.7,133.5l0.8,0l2.7,7.3l-0.8,0l-0.7-2l-3.7-0.1l-0.9,1.9l-0.7,0L71.7,133.5z M72,134.2l-1.8,3.9l3.2,0.1
			L72,134.2z"/>
		<path class="st1" d="M77.8,134.1l-2.2,0.1l0-0.6l5.1-0.3l0,0.6l-2.2,0.1l0.4,6.6l-0.7,0L77.8,134.1z"/>
		<path class="st1" d="M81.6,133.2l1.9-0.3c1.3-0.2,2.2,0.2,2.4,1.5c0.1,0.9-0.5,1.6-1.4,1.9v0c0.6,0,0.8,0.3,1.1,0.7l1.7,2.6
			l-0.8,0.1l-1.4-2.2c-0.6-0.9-0.9-0.8-1.6-0.7l-0.6,0.1l0.5,3.4l-0.7,0.1L81.6,133.2z M82.8,136.2l0.8-0.1c0.8-0.1,1.8-0.6,1.6-1.6
			c-0.2-1.2-1-1.1-2-0.9l-0.7,0.1L82.8,136.2z"/>
		<path class="st1" d="M87.3,132.2L88,132l1.6,7l-0.7,0.2L87.3,132.2z"/>
		<path class="st1" d="M89.9,131.6l1.1-0.4l4.6,5.1l0.5-6.9l1-0.3l2.3,6.8l-0.7,0.2l-2.1-6.1l0,0l-0.4,7l-0.6,0.2l-4.7-5.2l0,0
			l2.1,6.1l-0.7,0.2L89.9,131.6z"/>
		<path class="st1" d="M101.1,127.1c2-1,3.7,0.1,4.6,1.8c1,2,0.7,3.8-1.2,4.8c-1.9,1-3.6,0.1-4.6-1.8
			C99,130.2,99.1,128.1,101.1,127.1z M100.5,131.6c0.7,1.4,2.1,2.4,3.7,1.6c1.6-0.8,1.5-2.6,0.8-3.9c-0.7-1.4-2.1-2.4-3.7-1.6
			C99.8,128.4,99.8,130.2,100.5,131.6z"/>
		<path class="st1" d="M105.2,124.9l0.6-0.4l3.8,6.1l-0.6,0.4L105.2,124.9z"/>
		<path class="st1" d="M107.3,123.7l0.7-0.6l6.8,2.8l0,0l-3.8-5.1l0.6-0.4l4.3,5.8l-0.8,0.6l-6.7-2.8l0,0l3.7,5l-0.6,0.4
			L107.3,123.7z"/>
		<path class="st1" d="M113,119.3l2.7-2.4l0.4,0.5l-2.1,1.9l1.7,1.9l2-1.8l0.4,0.5l-2,1.8l1.9,2.1l2.2-2l0.4,0.5l-2.8,2.5L113,119.3
			z"/>
		<path class="st1" d="M126.2,115.8l-0.5,0.6l-7.3-2.4l0.5-0.6l6.5,2.2l-3.5-6l0.4-0.6L126.2,115.8z"/>
		<path class="st1" d="M122.9,108.4l0.4-0.6l5.9,4.1l-0.4,0.6L122.9,108.4z"/>
		<path class="st1" d="M131.8,107.7l-0.4,0.7l-7.6-1.3l0.4-0.7l6.8,1.2l-4.3-5.4l0.4-0.6L131.8,107.7z"/>
		<path class="st1" d="M128.3,98.8l0.3-0.8l7.8,0.2l-0.3,0.7L134,99l-1.5,3.4l1.4,1.5l-0.3,0.7L128.3,98.8z M129.1,98.8l3,3.1
			l1.3-2.9L129.1,98.8z"/>
		<path class="st1" d="M130.1,94.6l0.3-0.9l7.1-1.7l0,0l-6-1.9l0.2-0.7l6.9,2.1l-0.3,0.9l-7,1.7l0,0l5.9,1.8l-0.2,0.7L130.1,94.6z"
			/>
		<path class="st1" d="M133,86.6l-0.4,2.1l-0.6-0.1l1-5l0.6,0.1l-0.4,2.1l6.4,1.3l-0.1,0.7L133,86.6z"/>
	</g>
	<path class="st1" d="M124.1,74.4c0-27.4-22.2-49.6-49.6-49.6C47,24.8,24.8,47,24.8,74.4c0,27.4,22.2,49.6,49.6,49.6
		C101.9,124.1,124.1,101.9,124.1,74.4L124.1,74.4z M84.1,93h3.2l-17.2,30.9l-1.4-0.1c0,0-4.7-30.5-4.7-30.6c0-0.1,0-0.3,0.2-0.3
		c0.1,0,2.1,0,3,0c0.4,0,0.6-0.3,0.6-0.5l0,0l5.5-28.9c0,0,0,0,0-0.1c0.1-0.6-0.4-0.7-0.6-0.7c0,0,0,0,0,0c-2.9,0-13.8,0-13.8,0
		c-0.1,0-0.7,0-0.5-0.6c0,0,4.5-27,5-29.4c0-0.1,0.1-0.2,0.2-0.2c0.1,0,13.3,0,14.7,0c0.2,0,0.1,0.2,0.1,0.2l-0.5,1.8H66.6
		l-1.9,11.1c0,0.2,0,0.7,0.7,0.7H75c0.1,0,0,0.1,0,0c0,0-0.4,1.9-0.4,1.9s0,0-0.1,0h-9.8c-0.5,0-0.6,0.3-0.6,0.5l-1.9,11.3h11.5
		c0.2,0,0.2,0.1,0.2,0.2s-0.4,1.7-0.4,1.7c-0.1,0.5,0.3,0.7,0.5,0.7l2.9,0c8.6-0.5,11.6,3.7,11.7,7.8c0.1,4.3-3.3,8.6-8.3,8.8
		c-1.5,0.1-2.8-0.5-3.1-0.6c0,0-0.1-0.5-0.1-0.5c10.5,1.2,13.4-14.9-0.4-13c0,0,0,0,0,0l-5.4,27.8h-3.1c-0.6,0-0.6,0.4-0.5,0.5
		l3.6,22.9C71.3,116.6,84.1,93.1,84.1,93z M73.4,62.9L73.4,62.9L73.4,62.9L73.4,62.9z"/>
</g>
</svg>
