<?xml version="1.0" encoding="utf-8"?>
<!-- Generator: Adobe Illustrator 23.0.4, SVG Export Plug-In . SVG Version: 6.00 Build 0)  -->
<svg version="1.1" id="Calque_1" xmlns="http://www.w3.org/2000/svg" xmlns:xlink="http://www.w3.org/1999/xlink" x="0px" y="0px"
	 viewBox="0 0 220.8 49.9" enable-background="new 0 0 220.8 49.9" xml:space="preserve">
<g id="XMLID_2_">
	<path fill="#FFFFFF" d="M38.5,5.5c-0.7,1-1.4,1.9-2.7,1.9c-0.8,0-1.6-0.5-2.3-0.8l-0.5-0.2l0,0c-0.9-0.4-1.8-0.8-2.7-0.9
		c-1.8-0.1-2.9,1.1-3.8,2.5l1,0.8C28.3,7.9,29,7,30.3,7c0.7,0,1.4,0.4,2,0.7v24L17.8,5.6l-0.3,0.3c-1.5,1.4-5.4,0.4-5.4,0.4
		c-1.7-0.7-3.7-0.8-3.7-0.8C6.7,5.5,5.7,6.7,4.7,8.1l1,0.8c0.7-1,1.4-1.7,2.7-1.9c0.9-0.1,1.4,0.3,2,0.6v34.8
		c-0.7-0.3-1.3-0.5-1.9-0.5c-1.8-0.1-2.9,1.1-3.8,2.5l1,0.8c0.7-1,1.4-1.9,2.7-1.9c0.8,0,1.6,0.5,2.3,0.8l0.5,0.2l0,0
		c0.9,0.4,1.8,0.8,2.7,0.9c1.8,0.1,2.9-1.1,3.8-2.5l-1-0.8c-0.7,1-1.4,1.9-2.7,1.9c-0.7,0-1.4-0.4-2-0.6V9.1l20.5,37.6h1.4V8.4
		c0.6,0.3,1.3,0.5,1.9,0.5c1.8,0.1,2.9-1.1,3.8-2.5L38.5,5.5z"/>
	<path fill="#FFFFFF" d="M216.2,5.5c-0.7,1-1.4,1.9-2.7,1.9c-0.8,0-1.6-0.5-2.3-0.8l-0.5-0.2l0,0c-0.9-0.4-1.8-0.8-2.7-0.9
		c-1.8-0.1-2.9,1.1-3.8,2.5l1,0.8c0.7-1,1.4-1.9,2.7-1.9c0.7,0,1.4,0.4,2,0.7v24L195.5,5.6l-0.3,0.3c-1.5,1.4-5.4,0.4-5.4,0.4
		c-1.7-0.7-3.7-0.8-3.7-0.8c-1.8-0.1-2.9,1.1-3.8,2.5l1,0.8c0.7-1,1.4-1.7,2.7-1.9c0.9-0.1,1.4,0.3,2,0.6v34.8
		c-0.7-0.3-1.3-0.5-1.9-0.5c-1.8-0.1-2.9,1.1-3.8,2.5l1,0.8c0.7-1,1.4-1.9,2.7-1.9c0.8,0,1.6,0.5,2.3,0.8l0.5,0.2l0,0
		c0.9,0.4,1.8,0.8,2.7,0.9c1.8,0.1,2.9-1.1,3.8-2.5l-1-0.8c-0.7,1-1.4,1.9-2.7,1.9c-0.7,0-1.4-0.4-2-0.6V9.1l20.5,37.6h1.4V8.4
		c0.6,0.3,1.3,0.5,1.9,0.5c1.8,0.1,2.9-1.1,3.8-2.5L216.2,5.5z"/>
	<path fill="#FFFFFF" d="M65.9,35.5l-1.8,5.6c-1,2-3.5,2.7-5.7,2.6c-1.4,0-2.9-0.5-4.2-0.8l-0.9-0.2l0,0c-0.6-0.2-1.3-0.3-1.9-0.5
		V23.9h8.3l-1.4,4.4l1.5,0.5l3.4-10.8l-1.5-0.5l-1.5,4.7h-8.8v-15h12.4l-2.2,6.8l1.5,0.5l3.4-10.8l-1.5-0.5l-0.7,2.2H41.2v1.7h3.4
		v35.2c-1.3,0.5-2.3,1.2-3.2,2l1,1.2c1.3-1,3.4-2.4,5.8-2.3c1.4,0,2.9,0.5,4.2,0.8l0.9,0.2l0,0c1.7,0.4,3.4,0.8,4.9,0.9
		c2.2,0.1,3.7-0.4,5-1.2l-0.7,2.1l1.5,0.5L67.4,36L65.9,35.5z"/>
	<path fill="#FFFFFF" d="M80.4,43.8V8.3c1.8-0.1,2.8-1.2,3.8-2.5L83.1,5c-0.8,1-1.5,1.9-2.9,1.9c-0.8,0-1.7-0.5-2.5-0.8l-0.5-0.2
		l0,0c-1-0.4-2-0.8-3-0.9c-2-0.1-3.1,1.1-4.2,2.5l1.1,0.8c0.7-0.9,1.3-1.7,2.5-1.9V42c-1.7,0.1-2.7,1.3-3.6,2.5l1.1,0.8
		c0.8-1,1.5-1.9,2.9-1.9c0.8,0,1.7,0.5,2.5,0.8l0.5,0.2l0,0c1,0.4,2,0.8,3,0.9c2,0.1,3.1-1.1,4.2-2.5l-1.1-0.8
		C82.4,42.9,81.7,43.8,80.4,43.8z"/>
	<path fill="#FFFFFF" d="M93.9,14.5c-0.1-3.6,1.3-6.1,4.8-7.4c0.9-0.2,1.7-0.4,2.6-0.4c2.8-0.1,5.4,1.2,7,3.5l-1.7,5.5l1.4,0.5
		l3.2-10.8l-1.4-0.5l-1,3.4c-1.9-2.2-4.7-3.5-7.6-3.3c-1,0-2.1,0-3.1,0.2c-5.2,1.2-8.7,5.1-8.4,11.5c0.7,14.1,16.1,10.2,16.5,19.8
		c0.2,4.4-2.8,7.6-6.9,7.8c0,0-0.5,0-1.1,0c-3.3,0.2-5.8-0.9-8.2-2.7l2-6.8l-1.4-0.5l-3.2,10.8l1.4,0.5l0.7-2.2
		c2.6,1.9,5.3,3,8.9,2.8c0.2,0,0.5,0,0.7-0.1c6.2-0.3,12.2-4.7,11.8-12C110.4,20.3,94.2,23.6,93.9,14.5z"/>
	<path fill="#FFFFFF" d="M119.8,14.5c-0.1-3.6,1.3-6.1,4.8-7.4c0.9-0.2,1.7-0.4,2.6-0.4c2.8-0.1,5.4,1.2,7,3.5l-1.7,5.5l1.4,0.5
		l3.2-10.8l-1.4-0.5l-1,3.4c-1.9-2.2-4.7-3.5-7.6-3.3c-1,0-2.1,0-3.1,0.2c-5.2,1.2-8.7,5.1-8.4,11.5c0.7,14.1,16.1,10.2,16.5,19.8
		c0.2,4.4-2.8,7.6-6.9,7.8c0,0-0.5,0-1.1,0c-3.3,0.2-5.8-0.9-8.2-2.7l2-6.8l-1.4-0.5l-3.2,10.8l1.4,0.5l0.7-2.2
		c2.6,1.9,5.3,3,8.9,2.8c0.2,0,0.5,0,0.7-0.1c6.2-0.3,12.2-4.7,11.8-12C136.3,20.3,120.1,23.6,119.8,14.5z"/>
	<path fill="#FFFFFF" d="M180.7,17.7c-3.9-11-15.5-16.6-25.9-12.5c-0.2,0.1-0.4,0.2-0.6,0.3c-10,4.3-15.1,16.2-11.3,27
		c3.9,11,15.5,16.6,25.9,12.5c0.3-0.1,0.6-0.2,0.9-0.4C179.5,40.2,184.4,28.4,180.7,17.7z M168.9,43.1c-0.2,0.1-0.4,0.2-0.7,0.3
		c-6.9,2.7-15.4-3.4-19-13.5c-3.5-9.9-1-20,5.6-23c0.2-0.1,0.3-0.1,0.5-0.2c6.9-2.7,15.4,3.4,19,13.5
		C177.7,30,175.3,40.1,168.9,43.1z"/>
</g>
</svg>
