<?xml version="1.0" encoding="utf-8"?>
<!-- Generator: Adobe Illustrator 23.0.4, SVG Export Plug-In . SVG Version: 6.00 Build 0)  -->
<svg version="1.1" id="Calque_1" xmlns="http://www.w3.org/2000/svg" xmlns:xlink="http://www.w3.org/1999/xlink" x="0px" y="0px"
	 viewBox="0 0 469.4 210.7" enable-background="new 0 0 469.4 210.7" xml:space="preserve">
<g>
	<path fill="#CDCCCC" d="M27.9,137.9c-14.1,0-19.8-7-19.8-22V78.8H0V68.6h8.1V53.9c3.1-0.9,8.3-1.8,11.7-2.1v16.7H37
		c0,3.3-0.3,6.8-0.8,10.2H19.8v38.1c0,8.1,2.5,10.2,9.1,10.2c3.1,0,7.3-0.9,9.9-2.1c0.8,3,1.4,6.9,1.7,10.3
		C37,136.8,31.6,137.9,27.9,137.9z"/>
	<path fill="#CDCCCC" d="M96.6,136.6V88.5c0-6.5-2.7-10.7-11.3-10.7c-6.4,0-11.6,1.8-16.9,5.3v53.4H56.8v-96
		c3.1-0.5,8.1-0.9,11.6-0.9v35.3h0.7c6.5-5.6,12.6-7.7,20.1-7.7c10.9,0,19.3,5.6,19.3,20.6v48.7L96.6,136.6L96.6,136.6z"/>
	<path fill="#CDCCCC" d="M180.7,104.6h-39.9v1c0,14.2,4.3,21.1,18.8,21.1c6.3,0,13.4-1.8,17.5-4.3c1.2,3.1,2.3,7.4,2.9,10.9
		c-5.2,2.9-14.1,4.4-20.6,4.4c-20.3,0-31.1-11.3-31.1-34.4c0-25.2,12-36.2,27.9-36.2c16.6,0,25,10.2,25,27.6
		C181,97.7,180.9,101.5,180.7,104.6z M140.9,96.5h28.4c0.1-1,0.1-3.3,0.1-4.2c0-11.2-5-16-13.7-16C146.8,76.3,141.3,82.2,140.9,96.5
		z"/>
	<path fill="#CDCCCC" d="M223.5,137.9c-14.1,0-19.8-7-19.8-22V78.8h-8.1V68.6h8.1V53.9c3.1-0.9,8.3-1.8,11.7-2.1v16.7h17.2
		c0,3.3-0.3,6.8-0.8,10.2h-16.4v38.1c0,8.1,2.5,10.2,9.1,10.2c3.1,0,7.3-0.9,9.9-2.1c0.8,3,1.4,6.9,1.7,10.3
		C232.7,136.8,227.2,137.9,223.5,137.9z"/>
	<path fill="#CDCCCC" d="M258.1,56.9c-4.6,0-6.8-3.4-6.8-7.2c0-3.9,2.2-7.4,6.9-7.4c4.6,0,6.8,3.5,6.8,7.4
		C265,53.7,262.8,56.9,258.1,56.9z M252.3,136.6v-68h11.6v68H252.3z"/>
	<path fill="#CDCCCC" d="M303.3,137.9c-6.6,0-14.5-1.4-19.8-4.3c0.9-3.8,1.7-7.2,3-10.6c5.3,2.7,12.8,4.2,19.2,4.2
		c7.6,0,10.6-3.3,10.6-8.9c0-13.6-31.5-9.1-31.5-30.2c0-13.8,11.6-20.9,25.5-20.9c4.3,0,10.8,0.5,15.9,2c-0.1,3.3-0.9,7.4-1.7,10.8
		c-4.8-1.6-11.7-2.5-17.3-2.5c-6.8,0-10.4,2.9-10.4,9.1c0,11.9,31.8,8,31.8,31C328.4,131.7,316.7,137.9,303.3,137.9z"/>
</g>
<g>
	<path fill="#CDCCCC" d="M166.1,196.5c-2.4,0-4.9-0.5-7.3-1.3v15.5h-6.4v-52.4c1.7-0.3,4.5-0.4,6.4-0.4v3.4h0.4c3.4-3,6.7-4,10.4-4
		c8,0,13.2,5.6,13.2,18.5C182.7,190.3,176.4,196.5,166.1,196.5z M167.4,163.2c-3,0-6.1,0.9-8.6,2.6v23.5c2.2,1.1,4.8,1.6,7,1.6
		c7,0,10-3.9,10-14.3C175.8,165.6,172.6,163.2,167.4,163.2z"/>
	<path fill="#CDCCCC" d="M212.2,164.5c-0.8-0.2-2-0.4-3.3-0.4c-2.6,0-5.1,0.5-8.4,3.7v28.1h-6.4v-37.5c1.7-0.3,4.5-0.4,6.4-0.4v4.8
		h0.4c4.1-4.9,6.7-5.4,9.1-5.4c0.8,0,2,0.1,2.9,0.4C212.8,159.8,212.6,162.3,212.2,164.5z"/>
	<path fill="#CDCCCC" d="M235.3,196.5c-9.7,0-16.1-5.8-16.1-19.6c0-12.5,6.7-19.6,16.3-19.6c9.3,0,16.2,5.4,16.2,19.6
		C251.7,190.1,244.6,196.5,235.3,196.5z M235.5,162.9c-5.4,0-9.3,3.2-9.3,14c0,10.6,3.2,14,9.1,14s9.5-3.3,9.5-14
		C244.8,166.5,241.2,162.9,235.5,162.9z"/>
</g>
<g>
	<path fill="#F39200" d="M435.9,193.7c-2.9-2.6-7.2-5.1-12.8-7.4c-5.6-2.3-12.4-4.5-20.2-6.5c-7.8-2-16.4-3.8-25.8-5.4
		c-9.4-1.6-19.5-2.8-30.2-3.7c-3.8,2.9-8,5.9-12.6,8.9s-9.5,5.8-14.6,8.3s-10.1,4.5-15,6.1s-9.6,2.4-13.9,2.4c-4.9,0-9.3-0.5-13-1.5
		c-3.8-1-5.6-3.5-5.6-7.6c0-3.8,1.6-7.5,4.8-11.1c3.2-3.6,7.5-6.9,12.8-9.8c5.4-2.9,11.6-5.2,18.7-7c7.1-1.7,14.7-2.6,22.8-2.6
		c5.2,0,10.1,0,14.8,0c4.6,0,8.5,0.1,11.7,0.4c9.3-7.5,19.3-16.1,30.2-25.6s20.9-19.3,30-29.3s16.7-20,22.8-30
		c6.1-10,9.1-19.2,9.1-27.6c0-9.3-2.2-16.4-6.7-21.5S432,15.6,423,15.6c-7,0-13.2,0.9-18.7,2.8c-5.5,1.9-10.5,4.4-15,7.6
		c-4.5,3.2-8.6,6.7-12.4,10.6s-7.4,8-10.9,12.4c-0.9,1.2-1.7,1.4-2.6,0.7c-0.9-0.7-1-1.7-0.4-2.8c4.3-5.2,9.3-10.6,14.8-16.3
		c5.5-5.6,11.4-10.7,17.6-15.2s13-8.2,20.2-11.1s14.9-4.3,23-4.3c3.2,0,6.5,0.4,10,1.1c3.5,0.7,6.8,2.1,10,4.1s5.8,4.9,7.8,8.7
		s3,8.8,3,15.2c0,8.4-3.6,18.2-10.9,29.5c-7.2,11.3-16.3,22.9-27.2,34.8c-10.9,11.9-22.4,23.5-34.8,34.8
		c-12.3,11.3-23.5,21-33.7,29.1c14.5,1.2,28.5,2.5,42.1,3.9c13.6,1.5,24,3.3,31.3,5.6c3.5,0.9,5.2,3.2,5.2,7
		c-0.6,2.9-1.3,6.3-2.2,10.2c-0.9,3.9-1.7,7-2.6,9.3L435.9,193.7z M340.7,170.2c-1.7-0.3-4.5-0.5-8.3-0.7c-3.8-0.1-7.2-0.2-10.4-0.2
		c-13.9,0-24.5,0.7-31.9,2.2s-11.1,4.6-11.1,9.6c0,2,1.2,3.8,3.5,5.2c2.3,1.5,5.9,2.2,10.9,2.2c11.9,0,21.7-2.2,29.5-6.5
		C330.7,177.6,336.7,173.7,340.7,170.2z"/>
</g>
<rect x="250.6" y="42.4" fill="#F39200" width="15" height="15"/>
</svg>
